# xmcd CD Database Entry
#
# Track frame offsets:
# 150
# 3650
# 18425
# 38100
# 55650
# 73600
# 87750
# 101757
# 121050
# 137475
# 152325
# 175575
# 179550
# 198075
# 211875
# 237525
# 253875
# 274350
# 296400
# 312575
#
# Disc length: 4432 seconds
#
# Revision: 1
# Processed by: cddbd v1.4PL0 Copyright (c) Steve Scherf et al.
# Submitted via: tcd 2.0b
#
DISCID=18114e14
DTITLE=Sudirman - Dwidekad
DYEAR=1900
DGENRE=
TTITLE0=Dir - Sekapur Sirih
TTITLE1=Apa Khabar Orang Kampung
TTITLE2=Hidup Sederhana (Basikal Tua)
TTITLE3=Terasing
TTITLE4=Hujan
TTITLE5=Biarlah Kusengsara Sendiri
TTITLE6=Ayah Dan Ibu
TTITLE7=Milik Siapakah Gadis Ini
TTITLE8=Kasih
TTITLE9=Horee Horee
TTITLE10=Salam Terakhir
TTITLE11=Dir - Seulas Pinang
TTITLE12=Malam Ini
TTITLE13=Gerimis Di Lautan
TTITLE14=Patah Hati
TTITLE15=Joget Kenangan Manis
TTITLE16=Nilai Cintamu
TTITLE17=Merisik Khabar
TTITLE18=Balik Kampung
TTITLE19=Dir - Sepatah 2 Kata Kata
EXTD=Best Collection
EXTT0=
EXTT1=
EXTT2=
EXTT3=
EXTT4=
EXTT5=
EXTT6=
EXTT7=
EXTT8=
EXTT9=
EXTT10=
EXTT11=
EXTT12=
EXTT13=
EXTT14=
EXTT15=
EXTT16=
EXTT17=
EXTT18=
EXTT19=
PLAYORDER=
